<svg viewBox="0 0 64 64" xmlns="http://www.w3.org/2000/svg"><g id="Layer_9" data-name="Layer 9"><path d="m33.21 19.93h1.49a1.89 1.89 0 0 1 1.89 1.89v3.83a1.89 1.89 0 0 1 -1.89 1.89h-1.49a0 0 0 0 1 0 0v-7.61a0 0 0 0 1 0 0z" fill="#333" style="fill: rgb(117, 0, 0);"></path><path d="m11.65 19.93h1.49a0 0 0 0 1 0 0v7.62a0 0 0 0 1 0 0h-1.49a1.89 1.89 0 0 1 -1.89-1.89v-3.83a1.89 1.89 0 0 1 1.89-1.9z" fill="#333" style="fill: rgb(117, 0, 0);"></path><path d="m34.7 28.55h-1.49a1 1 0 0 1 -1-1v-7.62a1 1 0 0 1 1-1h1.49a2.89 2.89 0 0 1 2.89 2.9v3.83a2.89 2.89 0 0 1 -2.89 2.89zm-.49-2h.49a.89.89 0 0 0 .89-.89v-3.83a.89.89 0 0 0 -.89-.9h-.49z" fill="#000000" style="fill: rgb(0, 0, 0);"></path><path d="m13.14 28.55h-1.49a2.89 2.89 0 0 1 -2.9-2.89v-3.83a2.9 2.9 0 0 1 2.9-2.9h1.49a1 1 0 0 1 1 1v7.62a1 1 0 0 1 -1 1zm-1.49-7.62a.9.9 0 0 0 -.9.9v3.83a.89.89 0 0 0 .9.89h.49v-5.62z" fill="#000000" style="fill: rgb(0, 0, 0);"></path><path d="m33.16 18.38v12.36a9.94 9.94 0 0 1 -15.83 8 6.64 6.64 0 0 1 -.71-.58 9.87 9.87 0 0 1 -3.37-7.46v-12.32a7.55 7.55 0 0 1 7.55-7.55h4.81a7.48 7.48 0 0 1 1.78.21 0 0 0 0 0 0 0 6.8 6.8 0 0 1 1.18.39 7.55 7.55 0 0 1 4.59 6.95z" fill="#f6cd80" style="fill: rgb(243, 214, 160);"></path><path d="m26.19 24.92a1 1 0 0 1 -1-1v-3a1 1 0 0 1 2 0v3a1 1 0 0 1 -1 1z" fill="#000000" style="fill: rgb(0, 0, 0);"></path><path d="m20.22 24.92a1 1 0 0 1 -1-1v-3a1 1 0 1 1 2 0v3a1 1 0 0 1 -1 1z" fill="#000000" style="fill: rgb(0, 0, 0);"></path><path d="m37.24 48.65v2.41h-27.88v-2.41a7.55 7.55 0 0 1 7.56-7.55h12.76a7.44 7.44 0 0 1 2.88.57 7.56 7.56 0 0 1 4.68 6.98z" fill="#b3b6b7" style="fill: rgb(24, 187, 242);"></path><path d="m37.24 52.06h-27.88a1 1 0 0 1 -1-1v-2.41a8.57 8.57 0 0 1 8.56-8.55h12.76a8.54 8.54 0 0 1 8.56 8.55v2.41a1 1 0 0 1 -1 1zm-26.88-2h25.88v-1.41a6.54 6.54 0 0 0 -4.06-6.06 6.63 6.63 0 0 0 -2.5-.49h-12.76a6.56 6.56 0 0 0 -6.56 6.55z" fill="#000000" style="fill: rgb(0, 0, 0);"></path><path d="m23.21 41.7a11 11 0 0 1 -11-11v-12.32a8.56 8.56 0 0 1 8.59-8.55h4.81a8.56 8.56 0 0 1 8.55 8.55v9.17 3.38a11 11 0 0 1 -10.95 10.77zm-2.41-29.87a6.56 6.56 0 0 0 -6.55 6.55v12.37a9 9 0 0 0 17.9.17v-12.54a6.56 6.56 0 0 0 -6.55-6.55z" fill="#000000" style="fill: rgb(0, 0, 0);"></path><path d="m33.16 28.74a42.23 42.23 0 0 0 -19.91 0v2a10 10 0 0 0 19.9.19z" fill="#a67c52" style="fill: rgb(124, 64, 4);"></path><path d="m23.21 41.7a11 11 0 0 1 -11-11v-2a1 1 0 0 1 .77-1 43.47 43.47 0 0 1 20.38 0 1 1 0 0 1 .76 1v2.2a11 11 0 0 1 -10.91 10.8zm-9-12.16v1.21a9 9 0 0 0 17.9.17v-1.39a41.61 41.61 0 0 0 -17.86.01z" fill="#000000" style="fill: rgb(0, 0, 0);"></path><path d="m23.21 35.33a3.2 3.2 0 0 1 -3.1-2.48 1 1 0 0 1 1.95-.44 1.17 1.17 0 0 0 2.29 0 1 1 0 0 1 1.95.44 3.19 3.19 0 0 1 -3.09 2.48z" fill="#000000" style="fill: rgb(0, 0, 0);"></path><path d="m23.3 5.54a9.74 9.74 0 0 1 9.7 9.74v.42a0 0 0 0 1 0 0h-19.44a0 0 0 0 1 0 0v-.42a9.74 9.74 0 0 1 9.74-9.74z" fill="#fb5058" style="fill: rgb(126, 7, 122);"></path><path d="m33 16.7h-19.44a1 1 0 0 1 -1-1v-.42a10.74 10.74 0 0 1 21.48 0v.42a1 1 0 0 1 -1.04 1zm-18.46-2h17.46a8.74 8.74 0 0 0 -17.44 0z" fill="#000000" style="fill: rgb(0, 0, 0);"></path><path d="m23.3 11.47a2.12 2.12 0 0 1 2.12 2.12v2.11a0 0 0 0 1 0 0h-4.24a0 0 0 0 1 0 0v-2.12a2.12 2.12 0 0 1 2.12-2.11z" fill="#f6cd80" style="fill: rgb(243, 214, 160);"></path><path d="m25.42 16.7h-4.24a1 1 0 0 1 -1-1v-2.12a3.12 3.12 0 0 1 6.24 0v2.12a1 1 0 0 1 -1 1zm-3.24-2h2.24v-1.12a1.12 1.12 0 0 0 -2.24 0z" fill="#000000" style="fill: rgb(0, 0, 0);"></path><path d="m20.34 41.1h5.93a0 0 0 0 1 0 0v.42a3 3 0 0 1 -3 3 3 3 0 0 1 -3-3v-.42a0 0 0 0 1 .07 0z" fill="#f6cd80" style="fill: rgb(243, 214, 160);"></path><path d="m23.3 45.49a4 4 0 0 1 -4-4v-.39a1 1 0 0 1 1-1h5.92a1 1 0 0 1 1 1v.42a4 4 0 0 1 -3.92 3.97zm-1.88-3.39a2 2 0 0 0 3.76 0z" fill="#000000" style="fill: rgb(0, 0, 0);"></path><path d="m35.15 20.93a1 1 0 0 1 -1-1v-5.64c0-5.67-4.87-10.29-10.85-10.29s-10.85 4.62-10.85 10.29v5.64a1 1 0 0 1 -2 0v-5.64c0-6.78 5.76-12.29 12.85-12.29s12.85 5.51 12.85 12.29v5.64a1 1 0 0 1 -1 1z" fill="#000000" style="fill: rgb(0, 0, 0);"></path><path d="m50.61 29.88h1.49a1.89 1.89 0 0 1 1.9 1.89v3.83a1.89 1.89 0 0 1 -1.9 1.9h-1.49a0 0 0 0 1 0 0v-7.62a0 0 0 0 1 0 0z" fill="#333" style="fill: rgb(117, 0, 0);"></path><path d="m29 29.88h1.49a0 0 0 0 1 0 0v7.62a0 0 0 0 1 0 0h-1.49a1.89 1.89 0 0 1 -1.89-1.89v-3.84a1.89 1.89 0 0 1 1.89-1.89z" fill="#333" style="fill: rgb(117, 0, 0);"></path><path d="m52.1 38.5h-1.49a1 1 0 0 1 -1-1v-7.62a1 1 0 0 1 1-1h1.49a2.89 2.89 0 0 1 2.9 2.89v3.83a2.89 2.89 0 0 1 -2.9 2.9zm-.49-2h.49a.89.89 0 0 0 .89-.9v-3.83a.89.89 0 0 0 -.89-.89h-.49z" fill="#000000" style="fill: rgb(0, 0, 0);"></path><path d="m30.54 38.5h-1.49a2.9 2.9 0 0 1 -2.9-2.9v-3.83a2.89 2.89 0 0 1 2.9-2.89h1.49a1 1 0 0 1 1 1v7.62a1 1 0 0 1 -1 1zm-1.49-7.62a.89.89 0 0 0 -.9.89v3.83a.9.9 0 0 0 .9.9h.49v-5.62z" fill="#000000" style="fill: rgb(0, 0, 0);"></path><path d="m50.56 28.33v12.36a9.94 9.94 0 0 1 -15.83 8 6.64 6.64 0 0 1 -.71-.58 9.85 9.85 0 0 1 -3.37-7.45v-12.33a7.56 7.56 0 0 1 7.55-7.56h4.8a8 8 0 0 1 1.78.21 7.77 7.77 0 0 1 1.18.39 7.56 7.56 0 0 1 4.6 6.96z" fill="#f6cd80" style="fill: rgb(243, 214, 160);"></path><path d="m54.64 58.6v2.4h-27.88v-2.4a7.56 7.56 0 0 1 7.56-7.6h12.76a7.56 7.56 0 0 1 7.56 7.56z" fill="#36499b" style="fill: rgb(155, 54, 136);"></path><path d="m40.61 51.65a10.83 10.83 0 0 1 -6.47-2.12 7.19 7.19 0 0 1 -.8-.66 10.85 10.85 0 0 1 -3.69-8.18v-12.36a8.57 8.57 0 0 1 8.55-8.56h4.8a8.63 8.63 0 0 1 2 .23h.11a8 8 0 0 1 1.25.43 8.53 8.53 0 0 1 5.18 7.86v12.4a11 11 0 0 1 -10.93 10.96zm-2.41-29.88a6.56 6.56 0 0 0 -6.55 6.56v12.36a8.88 8.88 0 0 0 3 6.7c.22.2.42.37.63.53a9 9 0 0 0 14.25-7.23v-12.36a6.54 6.54 0 0 0 -4-6 6.1 6.1 0 0 0 -1-.34h-.08a6.77 6.77 0 0 0 -1.45-.22z" fill="#000000" style="fill: rgb(0, 0, 0);"></path><path d="m54.64 62h-27.88a1 1 0 0 1 -1-1v-2.4a8.57 8.57 0 0 1 8.56-8.6h12.76a8.65 8.65 0 0 1 3.26.64 8.54 8.54 0 0 1 5.3 7.92v2.44a1 1 0 0 1 -1 1zm-26.88-2h25.88v-1.4a6.54 6.54 0 0 0 -4.06-6.07 6.63 6.63 0 0 0 -2.5-.49h-12.76a6.56 6.56 0 0 0 -6.56 6.56z" fill="#000000" style="fill: rgb(0, 0, 0);"></path><path d="m52.55 30.88a1 1 0 0 1 -1-1v-4.54c0-4.46-4.87-8.08-10.85-8.08s-10.85 3.62-10.85 8.08v4.54a1 1 0 1 1 -2 0v-4.54c0-5.56 5.76-10.08 12.85-10.08s12.85 4.52 12.85 10.08v4.54a1 1 0 0 1 -1 1z" fill="#000000" style="fill: rgb(0, 0, 0);"></path><path d="m32.85 46.91h15.52a9.84 9.84 0 0 0 2.19-6.23v-12.35a7.53 7.53 0 0 0 -4.56-6.94 6.83 6.83 0 0 0 -1.2-.39 8.1 8.1 0 0 0 -1.8-.23h-4.8a7.55 7.55 0 0 0 -7.56 7.56v12.35a9.81 9.81 0 0 0 2.21 6.23z" fill="#a67c52" style="fill: rgb(124, 64, 4);"></path><path d="m48.37 47.91h-15.52a1 1 0 0 1 -.78-.37 10.78 10.78 0 0 1 -2.42-6.86v-12.35a8.57 8.57 0 0 1 8.56-8.56h4.79a9.32 9.32 0 0 1 2 .23h.12a7.91 7.91 0 0 1 1.24.43 8.52 8.52 0 0 1 5.18 7.86v12.39a10.79 10.79 0 0 1 -2.41 6.86 1 1 0 0 1 -.76.37zm-15-2h14.51a8.84 8.84 0 0 0 1.68-5.23v-12.35a6.52 6.52 0 0 0 -4-6 6 6 0 0 0 -1-.35h-.08a7.51 7.51 0 0 0 -1.48-.21h-4.8a6.56 6.56 0 0 0 -6.56 6.56v12.35a8.74 8.74 0 0 0 1.7 5.23z" fill="#000000" style="fill: rgb(0, 0, 0);"></path></g></svg>